<svg xmlns="http://www.w3.org/2000/svg" width="1800" height="1200" viewBox="0 0 1800 1200">
  <style>
    .title { font: 700 30px Arial, sans-serif; fill: #000000; }
    .actor { stroke: #111827; stroke-width: 3; fill: none; }
    .system { fill: #ffffff; stroke: #000000; stroke-width: 2.5; }
    .usecase { fill: #ffffff; stroke: #000000; stroke-width: 2; }
    .label { font: 700 18px Arial, sans-serif; fill: #000000; }
    .small { font: 14px Arial, sans-serif; fill: #000000; }
    .line { stroke: #000000; stroke-width: 2; }
  </style>
  <text x="900" y="50" text-anchor="middle" class="title">Use Case Diagram - AI Powered Employee Productivity and Task Management System</text>

  <rect x="370" y="100" width="1060" height="980" rx="18" class="system"/>
  <text x="900" y="135" text-anchor="middle" class="label">AI Powered Employee Productivity and Task Management System</text>

  <circle cx="130" cy="200" r="24" class="actor"/>
  <line x1="130" y1="224" x2="130" y2="300" class="actor"/>
  <line x1="95" y1="250" x2="165" y2="250" class="actor"/>
  <line x1="130" y1="300" x2="95" y2="345" class="actor"/>
  <line x1="130" y1="300" x2="165" y2="345" class="actor"/>
  <text x="130" y="380" text-anchor="middle" class="label">Admin</text>

  <circle cx="130" cy="540" r="24" class="actor"/>
  <line x1="130" y1="564" x2="130" y2="640" class="actor"/>
  <line x1="95" y1="590" x2="165" y2="590" class="actor"/>
  <line x1="130" y1="640" x2="95" y2="685" class="actor"/>
  <line x1="130" y1="640" x2="165" y2="685" class="actor"/>
  <text x="130" y="720" text-anchor="middle" class="label">Manager</text>

  <circle cx="130" cy="860" r="24" class="actor"/>
  <line x1="130" y1="884" x2="130" y2="960" class="actor"/>
  <line x1="95" y1="910" x2="165" y2="910" class="actor"/>
  <line x1="130" y1="960" x2="95" y2="1005" class="actor"/>
  <line x1="130" y1="960" x2="165" y2="1005" class="actor"/>
  <text x="130" y="1040" text-anchor="middle" class="label">Employee</text>

  <circle cx="1660" cy="520" r="24" class="actor"/>
  <line x1="1660" y1="544" x2="1660" y2="620" class="actor"/>
  <line x1="1625" y1="570" x2="1695" y2="570" class="actor"/>
  <line x1="1660" y1="620" x2="1625" y2="665" class="actor"/>
  <line x1="1660" y1="620" x2="1695" y2="665" class="actor"/>
  <text x="1660" y="700" text-anchor="middle" class="label">AI System</text>

  <ellipse cx="560" cy="220" rx="140" ry="40" class="usecase"/><text x="560" y="226" text-anchor="middle" class="small">Manage Users and Roles</text>
  <ellipse cx="560" cy="320" rx="140" ry="40" class="usecase"/><text x="560" y="326" text-anchor="middle" class="small">Manage Teams and Employees</text>
  <ellipse cx="560" cy="420" rx="140" ry="40" class="usecase"/><text x="560" y="426" text-anchor="middle" class="small">Create Projects</text>
  <ellipse cx="560" cy="540" rx="140" ry="40" class="usecase"/><text x="560" y="546" text-anchor="middle" class="small">Create and Assign Tasks</text>
  <ellipse cx="560" cy="660" rx="140" ry="40" class="usecase"/><text x="560" y="666" text-anchor="middle" class="small">Approve Requests</text>

  <ellipse cx="900" cy="240" rx="150" ry="40" class="usecase"/><text x="900" y="246" text-anchor="middle" class="small">Monitor Projects and Tasks</text>
  <ellipse cx="900" cy="360" rx="150" ry="40" class="usecase"/><text x="900" y="366" text-anchor="middle" class="small">View Dashboard</text>
  <ellipse cx="900" cy="500" rx="150" ry="40" class="usecase"/><text x="900" y="506" text-anchor="middle" class="small">Log Work and Update Progress</text>
  <ellipse cx="900" cy="630" rx="150" ry="40" class="usecase"/><text x="900" y="636" text-anchor="middle" class="small">Request Leave / Task Approval</text>
  <ellipse cx="900" cy="760" rx="150" ry="40" class="usecase"/><text x="900" y="766" text-anchor="middle" class="small">Add Comments and Attachments</text>
  <ellipse cx="900" cy="890" rx="150" ry="40" class="usecase"/><text x="900" y="896" text-anchor="middle" class="small">View Notifications and Reviews</text>

  <ellipse cx="1240" cy="300" rx="150" ry="40" class="usecase"/><text x="1240" y="306" text-anchor="middle" class="small">Predict Completion Time</text>
  <ellipse cx="1240" cy="430" rx="150" ry="40" class="usecase"/><text x="1240" y="436" text-anchor="middle" class="small">Predict Delay Risk</text>
  <ellipse cx="1240" cy="560" rx="150" ry="40" class="usecase"/><text x="1240" y="566" text-anchor="middle" class="small">Suggest Best Employee</text>
  <ellipse cx="1240" cy="690" rx="150" ry="40" class="usecase"/><text x="1240" y="696" text-anchor="middle" class="small">Analyze Workload and Burnout</text>
  <ellipse cx="1240" cy="820" rx="150" ry="40" class="usecase"/><text x="1240" y="826" text-anchor="middle" class="small">Generate Analytics</text>

  <line x1="165" y1="250" x2="420" y2="220" class="line"/>
  <line x1="165" y1="250" x2="420" y2="320" class="line"/>
  <line x1="165" y1="250" x2="420" y2="420" class="line"/>
  <line x1="165" y1="250" x2="750" y2="360" class="line"/>
  <line x1="165" y1="250" x2="420" y2="660" class="line"/>

  <line x1="165" y1="590" x2="420" y2="540" class="line"/>
  <line x1="165" y1="590" x2="750" y2="240" class="line"/>
  <line x1="165" y1="590" x2="750" y2="360" class="line"/>
  <line x1="165" y1="590" x2="420" y2="660" class="line"/>

  <line x1="165" y1="910" x2="750" y2="500" class="line"/>
  <line x1="165" y1="910" x2="750" y2="630" class="line"/>
  <line x1="165" y1="910" x2="750" y2="760" class="line"/>
  <line x1="165" y1="910" x2="750" y2="890" class="line"/>
  <line x1="165" y1="910" x2="750" y2="360" class="line"/>

  <line x1="1510" y1="570" x2="1390" y2="300" class="line"/>
  <line x1="1510" y1="570" x2="1390" y2="430" class="line"/>
  <line x1="1510" y1="570" x2="1390" y2="560" class="line"/>
  <line x1="1510" y1="570" x2="1390" y2="690" class="line"/>
  <line x1="1510" y1="570" x2="1390" y2="820" class="line"/>
</svg>
